# xmcd
#
# Track frame offsets: 
#        150
#        17715
#        29482
#        41577
#        54650
#        68672
#        108567
#        133140
#        155582
#        171887
#        189965
#        213847
#        223667
#        237165
#        262042
#        276792
#        286845
#        300825
#        313572
#
# Disc length: 4460 seconds
#
# Revision: 1
# Processed by: cddbd v1.5.2PL0 Copyright (c) Steve Scherf et al.
# Submitted via: ExactAudioCopyFreeDBPlugin 1.0
#
DISCID=10116a13
DTITLE=Crosby, Stills and Nash - Carry On 1
DYEAR=1991
DGENRE=
TTITLE0=Crosby, Stills, Nash and Young - Woodstock
TTITLE1=Marrakesh Express
TTITLE2=You Don't Have To Cry
TTITLE3=Crosby, Stills, Nash and Young - Teach Your Children
TTITLE4=Steven Stills - Love The One You're With
TTITLE5=Crosby, Stills, Nash and Young - Almost Cut My Hair
TTITLE6=Wooden Ships
TTITLE7=Dark Star
TTITLE8=Crosby, Stills, Nash and Young - Helpless
TTITLE9=Graham Nash - Chicago, We Can Change The World
TTITLE10=Cathedral
TTITLE11=Crosby, Stills, Nash and Young - 4 and 20
TTITLE12=Crosby, Stills, Nash and Young - Our House
TTITLE13=Crosby and Nash - To The Last Whale
TTITLE14=Steven Stills - Change Partners
TTITLE15=Just A Song Before I Go
TTITLE16=Crosby, Stills, Nash and Young - Ohio
TTITLE17=Wasted On The Way
TTITLE18=Southern Cross
EXTD=
EXTT0=
EXTT1=
EXTT2=
EXTT3=
EXTT4=
EXTT5=
EXTT6=
EXTT7=
EXTT8=
EXTT9=
EXTT10=
EXTT11=
EXTT12=
EXTT13=
EXTT14=
EXTT15=
EXTT16=
EXTT17=
EXTT18=
PLAYORDER=
